# xmcd
#
# Track frame offsets:
#	150
#	16077
#	26905
#	39888
#	51127
#	63300
#	72553
#	84206
#	97404
#	110480
#	124995
#	130923
#	142971
#	154670
#	162983
#	173991
#	188401
#	199646
#	211955
#	222289
#
# Disc length: 3124 seconds
#
# Revision: 0
# Processed by: cddbd v1.5.2PL0 Copyright (c) Steve Scherf et al.
# Submitted via: EasyCDDAExtractor 11.1.0.1
#
DISCID=1a0c3214
DTITLE=Various Artist - The country collection always on my mind
DYEAR=2008
DGENRE=country
TTITLE0=Willie Nelson - Always on my mind
TTITLE1=Jim and Jesse - Are you missing me
TTITLE2=Ernest Tubb - Are you waiting just for me
TTITLE3=Elvis Presley - Take my hand precious Lord
TTITLE4=Gene Autry - Peter cottontail
TTITLE5=Patsy Cline - Come on in
TTITLE6=Johnny Cash - So doggone lonesome
TTITLE7=Tex Ritter - Jealous heart
TTITLE8=Roy Acuff - A great specklebird
TTITLE9=Uncle Dave Macon - Backwater blues
TTITLE10=Jim Reeves - Have I told you lately that I love you
TTITLE11=Red Foley and the Cumberland Valley Boys - Tennessee saturday night
TTITLE12=Hank Williams - Kaw-liga
TTITLE13=Willie Nelson - Slow down old world
TTITLE14=Patsy Cline - I can't forget you
TTITLE15=The Osmonds - Yes Ma'am
TTITLE16=Lefty Frizell - Forever and always
TTITLE17=Johnny Cash - Next in line
TTITLE18=Hank Snow - The gold rush is over
TTITLE19=Hank Thompson - The wild side of life
EXTD=
EXTT0=
EXTT1=
EXTT2=
EXTT3=
EXTT4=
EXTT5=
EXTT6=
EXTT7=
EXTT8=
EXTT9=
EXTT10=
EXTT11=
EXTT12=
EXTT13=
EXTT14=
EXTT15=
EXTT16=
EXTT17=
EXTT18=
EXTT19=
PLAYORDER=
